<?xml version="1.0" encoding="utf-8"?>
<!-- Generator: Adobe Illustrator 26.2.1, SVG Export Plug-In . SVG Version: 6.00 Build 0)  -->
<svg version="1.1" id="Layer_1" xmlns="http://www.w3.org/2000/svg" xmlns:xlink="http://www.w3.org/1999/xlink" x="0px" y="0px"
	 viewBox="0 0 595.28 841.89" style="enable-background:new 0 0 595.28 841.89;" xml:space="preserve">
<style type="text/css">
	.st0{fill:#FFFFFF;}
	.st1{fill:#FFFFFF;stroke:#FFFFFF;stroke-miterlimit:10;}
</style>
<path class="st0" d="M251.49,347.75c0-8.03-3.1-15.35-8.16-20.83l-0.31,0.32c4.98,5.4,8.03,12.61,8.03,20.52
	c0,16.7-13.59,30.29-30.29,30.29c-7.65,0-14.64-2.86-19.98-7.55l-0.31,0.32c5.42,4.77,12.52,7.68,20.29,7.68
	C237.7,378.49,251.49,364.7,251.49,347.75z"/>
<path class="st0" d="M264.76,347.75c0,24.3-19.7,44.01-44.01,44.01c-11.39,0-21.77-4.33-29.58-11.43l-3.83,3.92
	c8.81,8.07,20.54,13.01,33.41,13.01c27.3,0,49.51-22.21,49.51-49.51c0-13.29-5.27-25.36-13.82-34.26l-3.83,3.92
	C260.13,325.3,264.76,335.98,264.76,347.75z"/>
<path class="st0" d="M264.76,347.75c0-11.77-4.63-22.45-12.15-30.34l-1.6,1.64c7.11,7.49,11.48,17.59,11.48,28.7
	c0,23.01-18.72,41.74-41.74,41.74c-10.76,0-20.57-4.09-27.98-10.8l-1.6,1.64c7.81,7.1,18.19,11.43,29.58,11.43
	C245.05,391.76,264.76,372.05,264.76,347.75z"/>
<path class="st0" d="M259.26,347.75c0,21.23-17.27,38.51-38.51,38.51c-9.88,0-18.9-3.74-25.72-9.88l-2.26,2.31
	c7.41,6.71,17.23,10.8,27.98,10.8c23.01,0,41.74-18.72,41.74-41.74c0-11.11-4.37-21.22-11.48-28.7l-2.26,2.31
	C255.26,328.26,259.26,337.54,259.26,347.75z"/>
<path class="st0" d="M245.55,347.75c0,13.69-11.1,24.8-24.8,24.8c-6.17,0-11.8-2.26-16.14-5.98l-3.84,3.93
	c5.34,4.69,12.33,7.55,19.98,7.55c16.7,0,30.29-13.59,30.29-30.29c0-7.91-3.05-15.12-8.03-20.52l-3.84,3.93
	C243.13,335.56,245.55,341.37,245.55,347.75z"/>
<path class="st0" d="M240.04,347.75c0,10.64-8.66,19.29-19.29,19.29c-4.66,0-8.95-1.66-12.29-4.43l-3.86,3.95
	c4.34,3.73,9.97,5.98,16.14,5.98c13.69,0,24.8-11.1,24.8-24.8c0-6.38-2.41-12.19-6.37-16.59l-3.87,3.96
	C238.25,338.51,240.04,342.92,240.04,347.75z"/>
<path class="st0" d="M165.72,390.64l-81.05,83l7.87,7.69l80.62-82.56C170.48,396.26,167.99,393.54,165.72,390.64z"/>
<path class="st0" d="M180.08,375.94l-6.6,6.76c2.19,2.96,4.66,5.71,7.36,8.2l6.5-6.65C184.62,381.76,182.19,378.97,180.08,375.94z"
	/>
<path class="st0" d="M169.58,386.69l-3.85,3.95c2.27,2.9,4.75,5.62,7.44,8.13l3.82-3.91C174.29,392.35,171.81,389.62,169.58,386.69z
	"/>
<path class="st0" d="M266.8,302.87l3.82-3.91c-2.57-2.63-5.34-5.06-8.29-7.25l-3.87,3.96C261.45,297.83,264.23,300.24,266.8,302.87z
	"/>
<path class="st0" d="M173.48,382.7l-3.9,4c2.23,2.93,4.71,5.66,7.4,8.16l3.86-3.95C178.14,388.4,175.67,385.66,173.48,382.7z"/>
<path class="st0" d="M258.46,295.67l-3.91,4c3.01,2.13,5.82,4.52,8.38,7.16l3.86-3.96C264.23,300.24,261.45,297.83,258.46,295.67z"
	/>
<path class="st0" d="M243.01,327.23l0.31-0.32c-2.52-2.72-5.52-4.99-8.87-6.67l-0.32,0.33C237.49,322.24,240.5,324.51,243.01,327.23
	z"/>
<path class="st0" d="M247.18,322.97l1.57-1.61c-2.53-2.69-5.45-5.01-8.66-6.88l-1.63,1.67
	C241.71,317.97,244.65,320.27,247.18,322.97z"/>
<path class="st0" d="M243.32,326.92l3.85-3.95c-2.53-2.7-5.46-5-8.71-6.83l-4.01,4.11C237.81,321.93,240.81,324.19,243.32,326.92z"
	/>
<path class="st0" d="M252.61,317.41l3.83-3.92c-2.55-2.66-5.39-5.03-8.47-7.07l-3.91,4C247.19,312.39,250.07,314.74,252.61,317.41z"
	/>
<path class="st0" d="M187.34,384.25l3.83-3.92c-2.73-2.48-5.14-5.3-7.18-8.4l-3.91,4C182.19,378.97,184.62,381.76,187.34,384.25z"/>
<path class="st0" d="M251.01,319.05l1.6-1.64c-2.54-2.67-5.41-5.02-8.55-6.98l-1.63,1.67C245.59,314.02,248.47,316.37,251.01,319.05
	z"/>
<path class="st0" d="M185.63,370.26l-1.64,1.68c2.04,3.09,4.45,5.91,7.18,8.4l1.6-1.64C190.03,376.21,187.63,373.37,185.63,370.26z"
	/>
<path class="st0" d="M187.94,367.89l-2.31,2.37c2,3.12,4.4,5.96,7.14,8.43l2.26-2.31C192.28,373.91,189.89,371.05,187.94,367.89z"/>
<path class="st0" d="M242.42,312.09l-2.33,2.38c3.21,1.87,6.12,4.19,8.66,6.88l2.26-2.31C248.47,316.37,245.59,314.02,242.42,312.09
	z"/>
<path class="st0" d="M234.13,320.58l-4.08,4.18c3.51,1.42,6.63,3.63,9.13,6.4l3.84-3.93C240.5,324.51,237.49,322.24,234.13,320.58z"
	/>
<path class="st0" d="M197.99,357.6l-4.08,4.18c1.74,3.31,4.07,6.27,6.86,8.72l3.84-3.93C201.78,364.13,199.5,361.07,197.99,357.6z"
	/>
<path class="st0" d="M202.26,353.23l-4.27,4.37c1.51,3.48,3.78,6.53,6.62,8.97l3.86-3.95C205.55,360.2,203.36,356.95,202.26,353.23z
	"/>
<path class="st0" d="M235.31,335.13l3.87-3.96c-2.5-2.77-5.61-4.97-9.13-6.4l-4.27,4.38C229.53,330.16,232.83,332.27,235.31,335.13z
	"/>
<path class="st0" d="M248.94,294"/>
<path class="st0" d="M291.67,274.81c-15.59,0-28.93,9.78-34.23,23.53c2.82,1.72,6.07,3.99,9.33,6.87
	c2.81-11.13,12.91-19.4,24.9-19.4c14.16,0,25.68,11.52,25.68,25.68s-11.52,25.68-25.68,25.68c-2.56,0-5.02-0.38-7.35-1.08
	c0.58,3.55,0.82,7.37,0.64,11.45c2.18,0.4,4.42,0.63,6.71,0.63c20.23,0,36.68-16.46,36.68-36.68S311.9,274.81,291.67,274.81z"/>
<circle class="st0" cx="301.31" cy="301.03" r="7.27"/>
<polyline class="st0" points="328.35,311.49 346.48,331.16 323.35,329.95 "/>
<path class="st0" d="M279.1,309.49c-2.49-3.78-5.33-7.3-8.48-10.53l-3.82,3.91c3.14,3.23,5.94,6.79,8.36,10.62L279.1,309.49z"/>
<path class="st0" d="M275.16,313.49c6.27,9.92,9.91,21.66,9.91,34.26c0,35.52-28.79,64.31-64.31,64.31
	c-12.25,0-23.69-3.45-33.44-9.4l-3.94,4c10.81,6.89,23.64,10.89,37.38,10.89c38.5,0,69.81-31.32,69.81-69.81
	c0-14.12-4.23-27.27-11.47-38.26L275.16,313.49z"/>
<path class="st0" d="M266.8,302.87l-3.86,3.96c3.14,3.23,5.9,6.83,8.24,10.7l3.98-4.04C272.74,309.66,269.94,306.1,266.8,302.87z"/>
<path class="st1" d="M220.75,412.06c1.39,0,2.76-0.04,4.13-0.13c33.6-2.13,60.19-30.05,60.19-64.18c0-12.6-3.64-24.34-9.91-34.26
	l-3.98,4.04c5.32,8.84,8.39,19.17,8.39,30.22c0,32.43-26.38,58.81-58.81,58.81c-10.73,0-20.79-2.9-29.45-7.94l-3.98,4.04
	c8.83,5.39,19.05,8.73,30.01,9.31C218.46,412.03,219.6,412.06,220.75,412.06z"/>
</svg>
